inDegrees=yes
name=ik_S46_A12_T02
DataType=double
version=3
OpenSimVersion=4.3-2021-08-27-4bc7ad9
endheader
time	pelvis_tilt	pelvis_list	pelvis_rotation	pelvis_tx	pelvis_ty	pelvis_tz	hip_flexion_r	hip_adduction_r	hip_rotation_r	knee_angle_r	knee_angle_r_beta	ankle_angle_r	subtalar_angle_r	mtp_angle_r	hip_flexion_l	hip_adduction_l	hip_rotation_l	knee_angle_l	knee_angle_l_beta	ankle_angle_l	subtalar_angle_l	mtp_angle_l	lumbar_extension	lumbar_bending	lumbar_rotation	arm_flex_r	arm_add_r	arm_rot_r	elbow_flex_r	pro_sup_r	wrist_flex_r	wrist_dev_r	arm_flex_l	arm_add_l	arm_rot_l	elbow_flex_l	pro_sup_l	wrist_flex_l	wrist_dev_l
8.639999999999905	-1.894488039623045	0.3743073796858285	33.98925054895164	0	0.9399999999999999	0	28.406154866351	-9.104672785328114	-8.254327904666667	32.146971853583	0.5610705033909679	0	0	0	28.406154866351	-9.104672785328114	-8.254327904666667	32.146971853583	0.5610705033909679	0	0	0	-1.182526680739844	2.180052391116003	5.734751858553191	13.51417193068826	-11.56460332754083	-15.8289754610555	2.41206804353182	101.5382424663168	0	0	105.2550991071119	-6.816255941581137	18.82581687895425	25.7602801792078	43.48705089501459	0	0
8.659999999999904	-1.894906834795544	0.372743028390971	33.9423086046301	0	0.9399999999999999	0	28.41459764172683	-9.106192022160545	-8.256227349861039	32.15538967487549	0.5612174220883663	0	0	0	28.41459764172683	-9.106192022160545	-8.256227349861039	32.15538967487549	0.5612174220883663	0	0	0	-1.184019948603717	2.178116565306308	5.772005842640511	13.5097295453321	-11.56423582933257	-15.9890780893928	2.29587639375501	101.6164170525287	0	0	105.2349494451272	-6.498537142605908	18.9037569729283	26.15299207189248	43.13603619904216	0	0
8.679999999999904	-1.874401066749721	0.3852430575309754	33.8690754088204	0	0.9399999999999999	0	28.41790593958091	-9.106785203533468	-8.256970046731357	32.15869673804627	0.5612751412292679	0	0	0	28.41790593958091	-9.106785203533468	-8.256970046731357	32.15869673804627	0.5612751412292679	0	0	0	-1.16010768335685	2.176822392004992	5.781371108562967	13.50940152357879	-11.56567947934523	-16.0885970321636	2.177293951958168	101.6710629954676	0	0	105.2457191335047	-6.178229224457383	18.80843492470689	26.08963644287375	43.17053346422647	0	0
8.699999999999903	-1.790879361963129	0.3891715161888208	33.80553730655563	0	0.9399999999999999	0	28.4219644735604	-9.10751117618196	-8.257879878664086	32.16276051900437	0.5613460675870665	0	0	0	28.4219644735604	-9.10751117618196	-8.257879878664086	32.16276051900437	0.5613460675870665	0	0	0	-1.088514397991124	2.133561771734519	5.775446155206401	13.37644094817093	-11.46512763283462	-16.05383450751376	2.044338652054431	101.6635397880885	0	0	105.1642108809795	-6.04819761587146	18.82916156657489	26.08249099324108	43.24883998912735	0	0
8.719999999999903	-1.755663768488944	0.3740881866440819	33.78444285958722	0	0.9399999999999999	0	28.42639895945792	-9.108305006185054	-8.258874579831247	32.16719547959192	0.5614234722515153	-1.563016343933725e-35	0	0	28.42639895945792	-9.108305006185054	-8.258874579831247	32.16719547959192	0.5614234722515153	-1.563016343933725e-35	0	0	-1.067887228999572	2.100945473805775	5.800456084406679	13.37150163661661	-11.41344995703924	-16.2062142668924	1.948961633104606	101.757681714749	0	0	105.1588818973413	-5.884946421171333	18.85099655602583	26.07582891738037	43.55087376897576	0	0
8.739999999999903	-1.717084772741168	0.3803253037824417	33.76468818867833	0	0.9399999999999999	0	28.43194075319213	-9.109298383439905	-8.260118842987032	32.17272858021863	0.5615200430752957	0	0	0	28.43194075319213	-9.109298383439905	-8.260118842987032	32.17272858021863	0.5615200430752957	0	0	0	-1.032476373529478	2.084159136365347	5.818202784457164	13.33921136669395	-11.40810180793334	-16.32395442252265	1.811761522886491	101.8426235557779	0	0	105.1245031768933	-5.722893328200088	18.85153250323873	25.94511106635496	43.6519104897979	0	0
8.759999999999902	-1.710093932255354	0.386394145026389	33.74436140177175	0	0.9399999999999999	0	28.43403480890324	-9.10967118948809	-8.260587015570389	32.17483110758813	0.5615567391005069	0	0	0	28.43403480890324	-9.10967118948809	-8.260587015570389	32.17483110758813	0.5615567391005069	0	0	0	-1.02334917298058	2.085147723403138	5.82565519317614	13.35175110815655	-11.42714662412624	-16.35647101184749	1.764154181793127	101.8630563040803	0	0	105.123246281738	-5.614413419202672	18.90735595401208	25.94483432790751	43.6514136216479	0	0
8.779999999999902	-1.690536726140548	0.4051297502889498	33.73530929682909	0	0.9399999999999999	0	28.44352366625647	-9.110172158035354	-8.261898902767484	32.18501340517746	0.5617344537188584	0	0	0	28.44352366625647	-9.110172158035354	-8.261898902767484	32.18501340517746	0.5617344537188584	0	0	0	-0.9968636532091238	2.089266204739114	5.841581385547813	13.39740402620588	-11.44874825955301	-16.39557611284202	1.561260520787022	101.8714090039375	0	0	105.0691529880698	-5.558997153839687	18.95987315922276	25.91779475128931	43.63436950655411	0	0
8.799999999999901	-1.685778455277047	0.404222914434328	33.74171534696252	0	0.9399999999999999	0	28.47293778208531	-9.113709595179879	-8.267318657992808	32.21543163082376	0.562265351909001	0	0	0	28.47293778208531	-9.113709595179879	-8.267318657992808	32.21543163082376	0.562265351909001	0	0	0	-0.993837172478524	2.084523635438719	5.859831749524816	13.40770857989896	-11.47486239298941	-16.41685187923462	1.508865868143607	101.8714489869876	0	0	105.0447103570783	-5.46717765576	19.01915766553417	25.9806168595725	43.64738512954092	0	0
8.819999999999901	-1.673608256772386	0.404384024010491	33.78838571176258	0	0.9399999999999999	0	28.50385064248902	-9.11748288272906	-8.273046907933022	32.24737092627795	0.5628227977754439	0	0	0	28.50385064248902	-9.11748288272906	-8.273046907933022	32.24737092627795	0.5628227977754439	0	0	0	-0.9839742481161435	2.076610091733408	5.868189189667635	13.41390073616673	-11.51778897167335	-16.42705870040585	1.486448644213585	101.8691031605631	0	0	105.0854487537344	-5.341654961973211	19.11233732650843	25.97776406171705	43.68161200654823	0	0
8.8399999999999	-1.660277835507557	0.3976891515761538	33.85433770617387	0	0.9399999999999999	0	28.54756922702684	-9.123498229771057	-8.281620008473674	32.29208925666465	0.5636032798766863	0	0	0	28.54756922702684	-9.123498229771057	-8.281620008473674	32.29208925666465	0.5636032798766863	0	0	0	-0.9770223165669563	2.06214231167969	5.8601742509624	13.40740431889107	-11.52232841507911	-16.44972866333755	1.563192645698728	101.8776996847937	0	0	105.0812494995221	-5.244208478944138	19.14033244575709	25.83565196268409	44.0453112075826	0	0
